<svg width="22" height="20" viewBox="0 0 22 20" fill="none" xmlns="http://www.w3.org/2000/svg">
<path d="M3.99998 0.499692C8.39998 -0.300308 10.5 4.83303 11 7.49969C15.5 0.499873 19.5 3.99951 20.5 4.99951C21.5 5.99951 21.5 8.49951 19.5 9.99951C17.9 11.1995 11.8333 16.4995 9 18.9995H7.5C4.70002 16.9995 1.99999 9.49951 0.999978 5.99951C0.166645 4.49957 -0.400022 1.29969 3.99998 0.499692Z" fill="#F40000"/>
<path d="M19.0744 12.0246C15.7911 14.6831 12.1064 16.5613 9.51617 19.7399C9.33376 19.9422 9.04191 19.9711 8.75006 19.8844C8.56765 20.0289 8.23932 20.0578 7.98395 19.8555C4.99244 17.1681 3.20481 14.0473 1.92795 10.7242C0.906456 8.06578 -1.20949 3.93358 0.90646 1.4196C2.29277 -0.256397 5.10187 -0.343083 7.32726 0.610499C9.80803 1.67967 10.7566 3.64461 11.2308 5.63847C12.2158 4.19365 13.6751 2.95111 15.9735 2.69105C18.6366 2.40208 20.9715 3.818 21.7376 5.75406C22.6496 8.12357 21.0444 10.4064 19.0744 12.0246ZM20.023 5.58069C18.892 3.78911 16.1194 3.41345 14.2223 4.51152C12.7266 5.34951 12.0699 6.70764 11.4862 8.00798C11.2673 8.52811 10.1364 8.38364 10.0634 7.83461C9.73506 5.52289 9.33376 2.43098 6.05039 1.39071C4.84649 0.87057 3.93445 1.13064 3.20481 2.11312C1.70906 2.54656 1.16184 3.32676 1.59962 4.51152C1.67259 5.55179 2.03741 6.59206 2.32926 7.60344C3.53316 11.6489 5.28428 15.521 8.38524 18.9886C10.6836 15.9834 13.894 14.1629 17.1409 11.8223C19.2568 10.3197 21.5187 7.95019 20.023 5.58069Z" fill="#1F1F1F"/>
</svg>
