<svg width="185" height="54" viewBox="0 0 185 54" fill="none" xmlns="http://www.w3.org/2000/svg">
<g id="Vector 128" filter="url(#filter0_d_3_400)">
<path d="M7.35189 35.1044L3.92186 30.2118L2.02891 10.6414C3.68591 7.85536 9.47002 2.12014 19.3505 1.4678C31.7011 0.652364 37.4142 -0.172465 51.6073 0.0313937C65.8005 0.235252 126.776 0.44087 131.769 0.44087C136.763 0.44087 161.499 -0.170538 168.078 2.88717C173.341 5.33334 178.172 10.0222 179.93 12.0608C179.406 12.4685 178.673 13.7323 179.94 15.5263C181.206 17.3202 181.879 20.0791 182.058 21.2343C181.359 21.9138 179.961 23.436 179.963 24.0883C179.965 24.9037 175.235 25.1076 177.603 26.1269C179.498 26.9423 179.977 29.3207 179.98 30.4079C178.143 31.4272 173.628 33.5066 170.264 33.6696C166.901 33.8327 163.959 34.553 162.909 34.8928L162.913 36.5238C164.491 36.7956 167.331 37.4206 166.07 37.7468C164.494 38.1545 162.915 37.1352 161.602 37.7468C160.29 38.3584 158.453 39.5815 160.031 39.9893C160.517 40.3649 160.991 40.5523 161.416 40.6252C161.938 40.5276 162.502 40.4473 162.924 40.397C162.654 40.5644 162.099 40.7422 161.416 40.6252C160.531 40.7911 159.769 41.0071 160.035 41.2124C160.456 41.5386 162.139 42.0278 162.928 42.2317L164.246 43.4548H160.041C157.728 43.4548 158.204 44.678 158.732 45.2896C158.119 45.4255 156.525 45.6157 155.052 45.2896C153.211 44.8818 154.001 45.4934 150.848 45.6973C148.325 45.8604 134.608 45.7652 130.315 45.6973C130.665 45.4255 130.891 44.8818 128.999 44.8818C126.634 44.8818 126.371 44.8818 123.481 45.2896C120.591 45.6973 54.3574 44.8801 45.4214 44.8801C38.2725 44.8801 47.3573 43.8702 46.0432 43.8702C41.9274 44.5497 27.6713 45.868 21.5733 45.7049C13.9508 45.501 7.3746 43.4625 7.37405 43.2586C7.37361 43.0955 5.9688 41.9675 5.26646 41.4239C5.96825 41.7636 7.37128 42.2393 7.36906 41.4239C7.36685 40.6084 5.95865 38.2301 5.25483 37.1429L7.35189 35.1044Z" fill="#FDA3C4"/>
<path d="M12.3772 46.7242C11.5361 46.7242 11.5033 47.5396 11.592 47.9473L9.88419 48.1512C9.05375 48.8307 7.55047 50.149 8.1808 49.9859C8.81114 49.8228 10.0189 49.3744 10.544 49.1705C10.8937 48.8987 13.2752 48.3551 20.0035 48.3551C28.414 48.3551 27.6244 47.9473 28.4129 47.9473C29.2013 47.9473 13.4285 46.7242 12.3772 46.7242Z" fill="#FDA3C4"/>
</g>
<defs>
<filter id="filter0_d_3_400" x="0.0289307" y="0" width="184.029" height="54" filterUnits="userSpaceOnUse" color-interpolation-filters="sRGB">
<feFlood flood-opacity="0" result="BackgroundImageFix"/>
<feColorMatrix in="SourceAlpha" type="matrix" values="0 0 0 0 0 0 0 0 0 0 0 0 0 0 0 0 0 0 127 0" result="hardAlpha"/>
<feOffset dy="2"/>
<feGaussianBlur stdDeviation="1"/>
<feComposite in2="hardAlpha" operator="out"/>
<feColorMatrix type="matrix" values="0 0 0 0 0.992157 0 0 0 0 0.639216 0 0 0 0 0.768627 0 0 0 0.44 0"/>
<feBlend mode="normal" in2="BackgroundImageFix" result="effect1_dropShadow_3_400"/>
<feBlend mode="normal" in="SourceGraphic" in2="effect1_dropShadow_3_400" result="shape"/>
</filter>
</defs>
</svg>
